Coordinates
version=1
nRows=27
nColumns=12
inDegrees=yes

Units are S.I. units (second, meters, Newtons, ...)
Angles are in degrees

endheader
time	SC_y	SC_z	SC_x	AC_y	AC_z	AC_x	GH_y	GH_z	GH_yy	EL_x	PS_y
       0.0              -47.34          31.23          65.53          46.54          -18.2         -7.325          143.7          66.45         -173.9          17.02          7.192
   0.04209              -47.34          31.23          65.52          46.54          -18.2         -7.325          143.6          66.43         -173.9          17.03          7.212
   0.08419              -47.34          31.22          65.52          46.53          -18.2         -7.325          143.6          66.42         -173.8          17.05          7.233
    0.1263              -47.34          31.22          65.51          46.53          -18.2         -7.324          143.5          66.41         -173.8          17.06          7.256
    0.1684              -47.33          31.21           65.5          46.53          -18.2         -7.324          143.5           66.4         -173.8          17.08           7.28
    0.2105              -47.33          31.21          65.49          46.53          -18.2         -7.324          143.4          66.38         -173.7           17.1          7.306
    0.2526              -47.33           31.2          65.48          46.53          -18.2         -7.323          143.4          66.36         -173.7          17.11          7.334
    0.2947              -47.33           31.2          65.47          46.52          -18.2         -7.323          143.3          66.35         -173.7          17.13          7.363
    0.3368              -47.33          31.19          65.46          46.52          -18.2         -7.322          143.3          66.33         -173.6          17.15          7.395
    0.3789              -47.32          31.18          65.45          46.52          -18.2         -7.322          143.2          66.31         -173.6          17.18          7.428
    0.4209              -47.32          31.17          65.43          46.52          -18.2         -7.321          143.1          66.29         -173.6           17.2          7.465
     0.463              -47.32          31.17          65.42          46.51          -18.2         -7.321          143.0          66.27         -173.5          17.22          7.504
    0.5051              -47.32          31.16           65.4          46.51          -18.2          -7.32          143.0          66.24         -173.5          17.25          7.546
    0.5472              -47.31          31.15          65.39          46.51          -18.2          -7.32          142.9          66.22         -173.4          17.28          7.592
    0.5893              -47.31          31.14          65.37           46.5          -18.2         -7.319          142.8          66.19         -173.3          17.31          7.641
    0.6314              -47.31          31.12          65.35           46.5          -18.2         -7.318          142.7          66.16         -173.3          17.35          7.694
    0.6735               -47.3          31.11          65.33           46.5          -18.2         -7.318          142.5          66.12         -173.2          17.39          7.752
    0.7156               -47.3           31.1          65.31          46.49          -18.2         -7.317          142.4          66.09         -173.1          17.43          7.816
    0.7577              -47.29          31.08          65.28          46.49          -18.2         -7.316          142.3          66.05         -173.0          17.47          7.885
    0.7998              -47.29          31.07          65.26          46.48          -18.2         -7.315          142.1          66.01         -172.9          17.52           7.96
    0.8419              -47.28          31.05          65.23          46.48          -18.2         -7.314          142.0          65.96         -172.8          17.58          8.043
     0.884              -47.28          31.03          65.19          46.47          -18.2         -7.312          141.8          65.91         -172.7          17.63          8.135
    0.9261              -47.27          31.01          65.16          46.46          -18.2         -7.311          141.6          65.85         -172.6           17.7          8.236
    0.9682              -47.26          30.98          65.12          46.45          -18.2          -7.31          141.3          65.78         -172.5          17.77          8.348
      1.01              -47.25          30.96          65.07          46.44          -18.2         -7.308          141.1          65.71         -172.3          17.85          8.472
     1.052              -47.24          30.93          65.02          46.43         -18.19         -7.306          140.8          65.63         -172.1          17.94          8.611
     1.094              -47.23          30.89          64.97          46.42         -18.19         -7.304          140.5          65.54         -172.0          18.04          8.766
